<svg xmlns="http://www.w3.org/2000/svg"><symbol id="check" viewBox="0 0 24 24"><polyline points="20 6 9 17 4 12"></polyline></symbol><symbol id="idCard" viewBox="0 -960 960 960"><path d="M560-440h200v-80H560v80Zm0-120h200v-80H560v80ZM200-320h320v-22q0-45-44-71.5T360-440q-72 0-116 26.5T200-342v22Zm160-160q33 0 56.5-23.5T440-560q0-33-23.5-56.5T360-640q-33 0-56.5 23.5T280-560q0 33 23.5 56.5T360-480ZM160-160q-33 0-56.5-23.5T80-240v-480q0-33 23.5-56.5T160-800h640q33 0 56.5 23.5T880-720v480q0 33-23.5 56.5T800-160H160Zm0-80h640v-480H160v480Zm0 0v-480 480Z"></path></symbol><symbol id="bankAccount" viewBox="0 -960 960 960"><path d="M200-280v-280h80v280h-80Zm240 0v-280h80v280h-80ZM80-120v-80h800v80H80Zm600-160v-280h80v280h-80ZM80-640v-80l400-200 400 200v80H80Zm178-80h444-444Zm0 0h444L480-830 258-720Z"></path></symbol><symbol id="xCircle" viewBox="0 0 24 24"><circle cx="12" cy="12" r="10"></circle><line x1="15" y1="9" x2="9" y2="15"></line><line x1="9" y1="9" x2="15" y2="15"></line></symbol><symbol id="bell" viewBox="0 0 24 24"><path d="M18 8A6 6 0 0 0 6 8c0 7-3 9-3 9h18s-3-2-3-9"></path><path d="M13.73 21a2 2 0 0 1-3.46 0"></path></symbol><symbol id="arrow" viewBox="0 0 27 25"><path fill-rule="evenodd" clip-rule="evenodd" d="M0.583343 10.8835C-0.194445 11.664 -0.194448 12.9266 0.583335 13.7071L11.0424 24.2025C11.9395 25.1027 13.4632 24.3184 13.2518 23.0652C12.9161 21.0748 12.6742 19.0726 12.5259 17.0653C12.5305 17.0636 12.5351 17.0618 12.5396 17.06L25.3624 14.5892L25.3655 14.5892C25.8704 14.5892 26.2798 13.6361 26.2798 12.4604C26.2798 11.2847 25.8704 10.3316 25.3655 10.3316L25.3655 10.331L12.5383 7.85928C12.5266 7.85471 12.5148 7.85032 12.5031 7.84612C12.6487 5.73131 12.8983 3.62187 13.2518 1.5255C13.4632 0.272239 11.9396 -0.512027 11.0424 0.388229L0.583343 10.8835Z" fill="currentColor"></path></symbol><symbol id="smartphone" viewBox="0 0 24 24"><rect x="5" y="2" width="14" height="20" rx="2" ry="2"></rect><line x1="12" y1="18" x2="12.01" y2="18"></line></symbol></svg>