<svg 
  xmlns="http://www.w3.org/2000/svg"
  xmlns:xlink="http://www.w3.org/1999/xlink"
>
  <symbol id="arrow" width="56" height="56" viewBox="0 0 56 56" fill="none" xmlns="http://www.w3.org/2000/svg">
    <path fill-rule="evenodd" clip-rule="evenodd" d="M2.59528 24.3172C0.437973 26.2983 0.437967 29.7013 2.59526 31.6825L22.7078 50.1533C24.8288 52.1011 28.2092 50.2321 27.6874 47.4L26.0159 38.3295C25.9479 37.9601 25.8835 37.5903 25.8228 37.22C26.0226 37.196 26.2191 37.1489 26.4115 37.08L53.1137 32.371L53.1189 32.371C54.1704 32.371 55.0227 30.5547 55.0227 28.3142C55.0227 26.0737 54.1704 24.2573 53.1189 24.2573V24.2564L26.4088 19.546C26.186 19.4665 25.9577 19.4162 25.7251 19.3971C25.8131 18.8203 25.9101 18.2446 26.0159 17.6701L27.6874 8.59982C28.2092 5.7678 24.8288 3.89871 22.7078 5.84655L2.59528 24.3172Z" fill="#544C4C"/>
  </symbol>

  <symbol id="help" width="56" height="56" viewBox="0 0 56 56" fill="none" xmlns="http://www.w3.org/2000/svg">
    <def>
      <circle cx="28" cy="28" r="24" fill="#544C4C"/>
      <path d="M19.672 20.952C20.2907 19.1173 21.336 17.656 22.808 16.568C24.28 15.4587 26.0933 14.904 28.248 14.904C29.6773 14.904 31.032 15.2027 32.312 15.8C33.6133 16.3973 34.6587 17.2613 35.448 18.392C36.2373 19.5013 36.632 20.8027 36.632 22.296C36.632 24.0453 36.1947 25.5067 35.32 26.68C34.4667 27.8533 33.1867 28.8667 31.48 29.72C30.5413 30.2107 29.9013 30.6587 29.56 31.064C29.24 31.448 29.0693 31.9707 29.048 32.632L29.016 34.072H25.176L25.144 32.216C25.1227 31.2987 25.2187 30.5307 25.432 29.912C25.6667 29.2933 26.0613 28.7387 26.616 28.248C27.192 27.7573 28.0027 27.256 29.048 26.744C30.264 26.104 31.1387 25.4533 31.672 24.792C32.2267 24.1307 32.504 23.2987 32.504 22.296C32.504 21.1653 32.0987 20.28 31.288 19.64C30.4773 18.9787 29.464 18.648 28.248 18.648C26.9893 18.648 25.9973 18.9467 25.272 19.544C24.5467 20.1413 23.9493 21.0373 23.48 22.232L19.672 20.952ZM27.128 42.776C26.4027 42.776 25.784 42.52 25.272 42.008C24.76 41.5173 24.504 40.9093 24.504 40.184C24.504 39.4587 24.76 38.84 25.272 38.328C25.784 37.816 26.4027 37.56 27.128 37.56C27.8533 37.56 28.4613 37.816 28.952 38.328C29.464 38.84 29.72 39.4587 29.72 40.184C29.72 40.9093 29.464 41.5173 28.952 42.008C28.4613 42.52 27.8533 42.776 27.128 42.776Z" fill="#F5F3FE"/>
    </def>
  </symbol>
</svg>