<svg width="27" height="25" viewBox="0 0 27 25" fill="none" xmlns="http://www.w3.org/2000/svg">
<path fill-rule="evenodd" clip-rule="evenodd" d="M0.583343 10.8835C-0.194445 11.664 -0.194448 12.9266 0.583335 13.7071L11.0424 24.2025C11.9395 25.1027 13.4632 24.3184 13.2518 23.0652C12.9161 21.0748 12.6742 19.0726 12.5259 17.0653C12.5305 17.0636 12.5351 17.0618 12.5396 17.06L25.3624 14.5892L25.3655 14.5892C25.8704 14.5892 26.2798 13.6361 26.2798 12.4604C26.2798 11.2847 25.8704 10.3316 25.3655 10.3316L25.3655 10.331L12.5383 7.85928C12.5266 7.85471 12.5148 7.85032 12.5031 7.84612C12.6487 5.73131 12.8983 3.62187 13.2518 1.5255C13.4632 0.272239 11.9396 -0.512027 11.0424 0.388229L0.583343 10.8835Z" fill="#544C4C"/>
</svg>
